<?xml version="1.0" encoding="utf-8"?>
<!-- Generator: Adobe Illustrator 25.4.1, SVG Export Plug-In . SVG Version: 6.00 Build 0)  -->
<svg version="1.1" id="Layer_1" xmlns="http://www.w3.org/2000/svg" xmlns:xlink="http://www.w3.org/1999/xlink" x="0px" y="0px"
	 viewBox="0 0 5000 4500" style="enable-background:new 0 0 5000 4500;" xml:space="preserve">
<style type="text/css">
	.st0{opacity:0.9;}
	.st1{clip-path:url(#SVGID_00000178163990208961103290000004194616772521367958_);}
	.st2{filter:url(#Adobe_OpacityMaskFilter);}
	.st3{clip-path:url(#SVGID_00000119113533570424536230000002292486075617631904_);}
	.st4{clip-path:url(#SVGID_00000029741940395709760230000015260902930565877419_);}
	
		.st5{clip-path:url(#SVGID_00000119113533570424536230000002292486075617631904_);mask:url(#SVGID_00000127755681683377854840000002155118470504337539_);}
	.st6{fill:#FFFFFF;}
	.st7{fill:#383838;}
	.st8{fill:#FF781D;}
	.st9{fill:#E2E0E0;}
	.st10{fill:#DEE8E9;}
	.st11{fill:#F1F5F4;}
	.st12{fill:none;}
	.st13{opacity:0.4;fill:#B3CBD3;enable-background:new    ;}
	.st14{fill:#9F583C;}
	.st15{fill:#070707;}
	.st16{fill:#050505;}
	.st17{opacity:0.3;fill:#050505;enable-background:new    ;}
	.st18{fill:#BC261B;}
	.st19{fill:#96211E;}
	.st20{fill:#751313;}
	.st21{fill:#231F20;}
</style>
<rect x="-4500" y="-2750" width="14000" height="10000"/>
<g>
	<g class="st0">
		<g>
			<g>
				<defs>
					<polygon id="SVGID_1_" points="-4691.1,-4314.4 -4688.1,-4314.4 -4691.1,-4311.5 					"/>
				</defs>
				<defs>
					<polygon id="SVGID_00000064348602429047575930000013019430281877564083_" points="-4697,-4320.3 -4699.9,-4320.3 
						-4697,-4323.3 					"/>
				</defs>
				<clipPath id="SVGID_00000001623087777660930880000011409343299961486518_">
					<use xlink:href="#SVGID_1_"  style="overflow:visible;"/>
				</clipPath>
				
					<clipPath id="SVGID_00000174593007025879625070000006576392117721801868_" style="clip-path:url(#SVGID_00000001623087777660930880000011409343299961486518_);">
					<use xlink:href="#SVGID_00000064348602429047575930000013019430281877564083_"  style="overflow:visible;"/>
				</clipPath>
				<defs>
					<filter id="Adobe_OpacityMaskFilter" filterUnits="userSpaceOnUse" x="1414" y="3604.5" width="2870.1" height="827.6">
						<feColorMatrix  type="matrix" values="1 0 0 0 0  0 1 0 0 0  0 0 1 0 0  0 0 0 1 0"/>
					</filter>
				</defs>
				
					<mask maskUnits="userSpaceOnUse" x="1414" y="3604.5" width="2870.1" height="827.6" id="SVGID_00000125599559584957445220000017481356018575853466_">
					<g class="st2">
						<g>
							<defs>
								<polygon id="SVGID_00000149380763663358536580000006842620968047747483_" points="-4691.1,-4314.4 -4688.1,-4314.4 
									-4691.1,-4311.5 								"/>
							</defs>
							<defs>
								<polygon id="SVGID_00000057126990434212540510000015245185709230142103_" points="-4697,-4320.3 -4699.9,-4320.3 
									-4697,-4323.3 								"/>
							</defs>
							
								<clipPath id="SVGID_00000151522869879849433670000015506618095759631531_" style="clip-path:url(#SVGID_00000174593007025879625070000006576392117721801868_);">
								<use xlink:href="#SVGID_00000149380763663358536580000006842620968047747483_"  style="overflow:visible;"/>
							</clipPath>
							
								<clipPath id="SVGID_00000109744533680136826890000001794776503482165665_" style="clip-path:url(#SVGID_00000151522869879849433670000015506618095759631531_);">
								<use xlink:href="#SVGID_00000057126990434212540510000015245185709230142103_"  style="overflow:visible;"/>
							</clipPath>
							<g>
								<g style="clip-path:url(#SVGID_00000109744533680136826890000001794776503482165665_);enable-background:new    ;">
									
										<image style="overflow:visible;" width="978" height="282" xlink:href="24B486C4.png"  transform="matrix(2.9347 0 0 2.9347 1414.021 3604.522)">
									</image>
								</g>
							</g>
						</g>
					</g>
				</mask>
				
					<g style="clip-path:url(#SVGID_00000174593007025879625070000006576392117721801868_);mask:url(#SVGID_00000125599559584957445220000017481356018575853466_);">
					<g style="enable-background:new    ;">
						
							<image style="overflow:visible;" width="978" height="282" xlink:href="24B486C5.png"  transform="matrix(2.9347 0 0 2.9347 1414.021 3604.522)">
						</image>
					</g>
				</g>
			</g>
		</g>
		<g>
			
				<image style="overflow:visible;enable-background:new    ;" width="4075" height="1175" xlink:href="24B486C7.png"  transform="matrix(0.7047 0 0 0.7047 1413.01 3604.3765)">
			</image>
		</g>
	</g>
	
		<rect x="1208" y="570.6" transform="matrix(0.995 -9.939481e-02 9.939481e-02 0.995 -202.3904 276.9421)" class="st6" width="2940.4" height="3198.2"/>
	
		<rect x="1310.4" y="682.8" transform="matrix(0.995 -9.939481e-02 9.939481e-02 0.995 -200.8212 276.8002)" class="st7" width="2734.3" height="2942.1"/>
	<g>
		<g>
			<path class="st6" d="M1816.5,2480.1l-65.8,7.8l-14.2-119.2l-114.6,13.7l14.2,119.2l-65.8,7.8l-33.6-282.1l65.8-7.8l14,117.9
				l114.6-13.7l-14-117.9l65.8-7.8L1816.5,2480.1z"/>
			<path class="st6" d="M2124.5,2300.3c2.4,20.4,1.2,39.8-3.8,58.1c-5,18.4-13,34.8-24.3,49.3c-11.2,14.5-25.4,26.5-42.5,36
				c-17.1,9.5-36.7,15.5-58.6,18.2c-21.9,2.6-42.4,1.3-61.3-3.9c-18.9-5.2-35.6-13.5-50-25c-14.4-11.4-26.1-25.5-35.3-42.3
				c-9.1-16.7-14.9-35.3-17.3-55.6c-2.4-20.4-1.2-39.8,3.8-58.2c5-18.4,13.1-34.8,24.4-49.2c11.3-14.4,25.6-26.4,42.8-35.9
				c17.2-9.5,36.7-15.5,58.7-18.2c21.9-2.6,42.4-1.3,61.2,4c18.9,5.3,35.5,13.6,49.8,25c14.3,11.4,26,25.4,35.1,42.1
				C2116.4,2261.6,2122.2,2280,2124.5,2300.3z M2057.6,2308.3c-1.7-13.9-5-26.3-9.9-37c-4.9-10.7-11.3-19.6-19-26.5
				c-7.7-6.9-16.7-11.9-27-14.9c-10.3-2.9-21.7-3.7-34.2-2.2c-12.6,1.5-23.7,4.9-33.1,10.2c-9.4,5.3-17,12.2-22.9,20.8
				c-5.8,8.6-9.9,18.6-12.2,30.2c-2.3,11.6-2.6,24.4-0.9,38.3c1.7,14.1,5,26.5,9.9,37.2c5,10.7,11.3,19.6,19,26.5
				c7.7,6.9,16.7,11.9,27.1,14.7s21.8,3.6,34.5,2.1c12.5-1.5,23.4-4.9,32.8-10.1c9.3-5.2,16.9-12.1,22.8-20.7
				c5.9-8.6,9.9-18.6,12.2-30.2C2058.9,2335.2,2059.3,2322.3,2057.6,2308.3z"/>
			<path class="st6" d="M2283.9,2372c8.8-1,16.5-3.4,23-7.1c6.5-3.7,11.9-8.6,16-14.6c4.1-6,7-13,8.6-21.1
				c1.6-8.1,1.8-17.1,0.6-27.1l-19.9-167.1l65.4-7.8l19.9,167.1c2.1,17.3,1.1,33.5-2.7,48.6c-3.9,15.1-10.4,28.5-19.6,40.2
				c-9.2,11.7-21,21.3-35.2,28.9c-14.3,7.6-30.8,12.5-49.5,14.7c-18.8,2.2-36.1,1.4-51.7-2.7c-15.7-4-29.3-10.6-41-19.8
				c-11.7-9.2-21.2-20.7-28.5-34.5c-7.3-13.8-11.9-29.3-14-46.6l-19.9-167.1l65.4-7.8l19.9,166.9c1.2,9.9,3.5,18.7,6.9,26.2
				c3.4,7.5,7.9,13.7,13.3,18.6c5.4,4.9,11.8,8.4,19,10.5C2267.1,2372.5,2275.1,2373.1,2283.9,2372z"/>
			<path class="st6" d="M2584.2,2160.8c-1.6,3.3-3.3,5.9-5.3,7.7c-1.9,1.8-4.6,2.9-7.9,3.3c-3,0.4-6.3-0.2-9.9-1.7
				c-3.7-1.5-7.8-3.1-12.4-4.9c-4.6-1.8-9.8-3.3-15.6-4.5c-5.8-1.2-12.2-1.4-19.3-0.6c-12.3,1.5-21.1,5.2-26.5,11.1
				c-5.4,5.9-7.5,13.4-6.5,22.3c0.7,5.7,3,10.2,7.1,13.5c4.1,3.3,9.2,6,15.4,8c6.2,2,13.2,3.7,21,5c7.8,1.4,15.8,2.9,24,4.8
				c8.2,1.9,16.3,4.2,24.3,7c8,2.9,15.3,6.8,21.8,11.9c6.6,5.1,12.1,11.6,16.7,19.5c4.6,7.9,7.6,17.7,9,29.5
				c1.6,13,0.7,25.5-2.4,37.4c-3.2,11.9-8.6,22.6-16.1,32.1c-7.6,9.5-17.4,17.4-29.4,23.7c-12,6.3-26,10.4-42,12.4
				c-8.8,1-17.8,1.2-27.1,0.5c-9.3-0.7-18.4-2.2-27.3-4.5s-17.4-5.2-25.4-8.8c-8-3.6-15.2-7.9-21.3-12.8l15.7-32.9
				c1.1-2.5,2.9-4.6,5.3-6.3c2.4-1.7,5.1-2.8,8.1-3.1c3.9-0.5,7.9,0.3,12.1,2.3c4.2,2,9,4.2,14.3,6.5c5.3,2.4,11.4,4.4,18.1,6.1
				c6.8,1.7,14.5,2,23.3,0.9c11.9-1.4,20.8-5.1,26.7-11.1c6-6,8.3-14.7,6.9-26.1c-0.8-6.6-3.2-11.7-7.3-15.4
				c-4.1-3.7-9.3-6.6-15.5-8.6s-13.2-3.6-20.9-4.8c-7.7-1.2-15.7-2.6-23.9-4.1c-8.2-1.6-16.2-3.8-24.1-6.6
				c-7.9-2.8-15.2-6.8-21.8-12.1c-6.6-5.3-12.2-12.2-16.9-20.8c-4.7-8.6-7.8-19.4-9.4-32.6c-1.3-10.6-0.4-21.2,2.7-31.7
				c3.1-10.6,8.3-20.3,15.6-29.1c7.3-8.8,16.7-16.4,28.1-22.5c11.4-6.1,24.9-10.1,40.4-12c8.6-1,17.2-1.4,25.5-1
				c8.3,0.4,16.4,1.5,24,3.2c7.7,1.8,14.9,4.1,21.7,7c6.8,2.9,13,6.4,18.6,10.4L2584.2,2160.8z"/>
			<path class="st6" d="M2811.6,2075.6l6,50.3l-115.8,13.8l7.8,65.8l88.7-10.6l5.7,48.4l-88.7,10.6l8,67.2l115.8-13.8l6,50.3
				l-181.6,21.6l-33.6-282.1L2811.6,2075.6z"/>
			<path class="st6" d="M3043,2102.6l9.1,76.6l71.6-8.5l5.1,43l-71.6,8.5l9.2,77l-48.8,5.8l-9.2-77l-71.2,8.5l-5.1-43l71.2-8.5
				l-9.1-76.7L3043,2102.6z"/>
			<path class="st6" d="M1684.8,2913.9l104.5-12.4l6.2,52.3l-170,20.2l-33.6-282.1l65.4-7.8L1684.8,2913.9z"/>
			<path class="st6" d="M2072.6,2777.7c2.4,20.4,1.2,39.8-3.8,58.2c-5,18.4-13,34.8-24.3,49.3c-11.2,14.5-25.4,26.5-42.5,36
				c-17.1,9.5-36.7,15.5-58.6,18.2c-21.9,2.6-42.4,1.3-61.3-3.9c-18.9-5.2-35.6-13.5-50-25c-14.4-11.4-26.1-25.5-35.3-42.2
				c-9.1-16.7-14.9-35.3-17.3-55.7c-2.4-20.4-1.2-39.8,3.8-58.2c5-18.4,13.1-34.8,24.4-49.2c11.3-14.4,25.6-26.4,42.8-35.9
				c17.2-9.5,36.8-15.6,58.7-18.2c21.9-2.6,42.4-1.3,61.2,4c18.9,5.3,35.5,13.6,49.8,25c14.3,11.4,26,25.4,35.2,42.1
				C2064.4,2738.9,2070.2,2757.4,2072.6,2777.7z M2005.6,2785.6c-1.7-13.9-5-26.3-9.9-37c-5-10.7-11.3-19.6-19-26.5
				c-7.7-6.9-16.7-11.9-27-14.9c-10.3-2.9-21.7-3.7-34.2-2.2c-12.6,1.5-23.6,4.9-33.1,10.2c-9.4,5.3-17,12.2-22.9,20.8
				c-5.8,8.6-9.9,18.6-12.2,30.2c-2.3,11.6-2.6,24.4-0.9,38.3c1.7,14.1,5,26.5,9.9,37.2c4.9,10.7,11.3,19.6,19,26.5
				c7.7,6.9,16.7,11.9,27.1,14.7s21.8,3.6,34.5,2.1c12.5-1.5,23.4-4.9,32.8-10.1c9.3-5.2,16.9-12.1,22.8-20.7
				c5.9-8.6,9.9-18.6,12.2-30.2C2007,2812.5,2007.3,2799.7,2005.6,2785.6z"/>
			<path class="st6" d="M2052.3,2637.1l52.7-6.3c5.7-0.7,10.5,0.1,14.4,2.2c3.9,2.2,6.9,5.3,9,9.3l72.6,144.5
				c3.2,6.3,6.6,13.2,10,20.6c3.4,7.5,6.8,15.3,10,23.6c0.8-8.7,1.9-17.1,3.4-25.2c1.5-8,3-15.5,4.5-22.3l36.2-157.4
				c0.9-3.8,3-7.3,6.4-10.7c3.4-3.4,7.8-5.4,13.2-6l53-6.3l-79.5,295.5l-59.2,7L2052.3,2637.1z"/>
			<path class="st6" d="M2542.5,2578.8l6,50.3l-115.8,13.8l7.8,65.8l88.7-10.6l5.7,48.4l-88.7,10.6l8,67.2l115.8-13.8l6,50.3
				l-181.6,21.6l-33.6-282.1L2542.5,2578.8z"/>
			<path class="st6" d="M2666.5,2660.4l176.2-21l5.1,43.2l-176.2,21L2666.5,2660.4z M2674.9,2731.5l176.2-21l5.1,43l-176.2,21
				L2674.9,2731.5z"/>
			<g>
				<g>
					<path class="st8" d="M1927.1,3409.3l-65.8,7.8l-14.2-119.2l-114.6,13.7l14.2,119.2l-65.8,7.8l-33.6-282l65.8-7.8l14,117.9
						l114.6-13.7l-14-117.9l65.8-7.8L1927.1,3409.3z"/>
				</g>
			</g>
			<g>
				<g>
					<path class="st8" d="M2235.2,3229.5c2.4,20.4,1.2,39.8-3.8,58.1c-5,18.4-13,34.8-24.3,49.3c-11.2,14.5-25.4,26.5-42.5,36
						c-17.1,9.5-36.7,15.5-58.6,18.2c-21.9,2.6-42.4,1.3-61.3-3.9c-18.9-5.2-35.6-13.5-50-25c-14.4-11.4-26.1-25.5-35.3-42.3
						c-9.1-16.7-14.9-35.3-17.3-55.7c-2.4-20.4-1.2-39.8,3.8-58.2c5-18.4,13.1-34.8,24.4-49.2c11.3-14.4,25.6-26.4,42.8-35.9
						c17.2-9.5,36.8-15.5,58.7-18.2c21.9-2.6,42.3-1.3,61.2,4c18.9,5.3,35.5,13.6,49.8,25c14.3,11.4,26,25.4,35.1,42.1
						C2227,3190.8,2232.7,3209.3,2235.2,3229.5z M2168.2,3237.5c-1.7-13.9-5-26.3-9.9-37c-4.9-10.7-11.3-19.6-19-26.5
						c-7.7-6.9-16.7-11.9-27-14.9c-10.3-2.9-21.7-3.7-34.2-2.2c-12.6,1.5-23.6,4.9-33.1,10.2c-9.4,5.3-17,12.2-22.9,20.8
						c-5.9,8.6-9.9,18.6-12.2,30.2c-2.3,11.6-2.6,24.4-0.9,38.3c1.7,14.1,5,26.5,9.9,37.2c4.9,10.7,11.3,19.6,19,26.5
						c7.7,6.9,16.7,11.9,27.1,14.7s21.8,3.6,34.5,2.1c12.5-1.5,23.4-4.9,32.8-10.1c9.3-5.2,16.9-12.1,22.8-20.7
						c5.9-8.6,9.9-18.6,12.2-30.2C2169.5,3264.4,2169.9,3251.5,2168.2,3237.5z"/>
				</g>
			</g>
			<g>
				<g>
					<path class="st8" d="M2421.5,3235.2c3,5,6,10.2,8.8,15.5c1.5-6,3.2-11.7,5-17.4c1.8-5.7,3.7-11.1,5.7-16.5l55.4-151.3
						c1-2.6,2.1-4.7,3.3-6.2c1.2-1.5,2.6-2.7,4.2-3.5c1.6-0.9,3.4-1.4,5.6-1.7c2.1-0.3,4.6-0.6,7.5-0.9l50-5.9l33.6,281.9l-57.7,6.9
						l-19.3-162.2c-0.9-7.9-1.6-16.4-1.9-25.7l-57.5,153.9c-1.8,4.8-4.5,8.6-8.2,11.4c-3.7,2.8-8,4.5-13,5.1l-8.9,1.1
						c-5,0.6-9.7,0-13.9-1.9c-4.2-1.9-7.8-4.9-10.6-9.1l-92.4-136.3c1.1,4.5,2,8.9,2.8,13.3c0.8,4.4,1.4,8.5,1.9,12.3l19.3,162.2
						l-57.7,6.9l-33.6-281.9l50-5.9c2.8-0.4,5.3-0.6,7.5-0.9c2.1-0.3,4.1-0.2,5.8,0.3c1.8,0.4,3.4,1.3,4.9,2.4
						c1.5,1.2,3.1,2.9,4.6,5.2l89.6,134.6C2415.3,3225.4,2418.4,3230.2,2421.5,3235.2z"/>
				</g>
			</g>
			<g>
				<g>
					<path class="st8" d="M2794.9,3020l6,50.3l-115.8,13.8l7.8,65.8l88.7-10.6l5.7,48.4l-88.7,10.6l8,67.2l115.8-13.8l6,50.3
						l-181.6,21.6l-33.6-282L2794.9,3020z"/>
				</g>
			</g>
		</g>
	</g>
	<g>
		
			<ellipse transform="matrix(0.9927 -0.1203 0.1203 0.9927 -169.7814 287.2846)" class="st9" cx="2294.4" cy="1549.8" rx="927.6" ry="408"/>
		<polygon class="st10" points="2555.8,1764.4 2971.2,1372 2929.4,720.7 2435.2,797.6 		"/>
		<polygon class="st11" points="1910.1,393.2 2450.5,788 2440.9,801.2 2560.8,1763.6 1627.4,1700.3 1509.3,941.7 		"/>
		<line class="st12" x1="2495.3" y1="1231.8" x2="2786.2" y2="1080.2"/>
		
			<rect x="2476.5" y="1138.3" transform="matrix(0.8868 -0.4621 0.4621 0.8868 -235.3515 1351.0553)" class="st13" width="328" height="35.3"/>
		<line class="st12" x1="2518.6" y1="1409.7" x2="2703.1" y2="1314.6"/>
		
			<rect x="2507.5" y="1344.5" transform="matrix(0.8888 -0.4584 0.4584 0.8888 -333.905 1348.5042)" class="st13" width="207.6" height="35.3"/>
		<line class="st12" x1="2524.9" y1="1563.8" x2="2298.3" y2="1559.2"/>
		
			<rect x="2393.9" y="1448.1" transform="matrix(2.019992e-02 -0.9998 0.9998 2.019992e-02 801.7395 3940.8657)" class="st13" width="35.3" height="226.6"/>
		<line class="st12" x1="2518.6" y1="1409.7" x2="1762.2" y2="1380.5"/>
		<line class="st12" x1="2495.3" y1="1231.8" x2="2304.5" y2="1222.4"/>
		
			<rect x="2382.5" y="1131.7" transform="matrix(4.899994e-02 -0.9988 0.9988 4.899994e-02 1056.7532 3564.374)" class="st13" width="35.3" height="191.1"/>
		<line class="st12" x1="1615.1" y1="1528.1" x2="1762.5" y2="1527.9"/>
		
			<rect x="1615.1" y="1510.3" transform="matrix(1 -1.809675e-03 1.809675e-03 1 -2.7624 3.0587)" class="st13" width="147.3" height="35.3"/>
		<g>
			<path class="st14" d="M1778.5,1232.1c-15.1-96.8,60.3-150.7,157.1-165.7c96.8-15.1,193.3,88.5,208.4,185.3l74.6,479l-365.5-19.6
				L1778.5,1232.1L1778.5,1232.1z"/>
			<path class="st15" d="M2238.5,1748.7l-400-21.4l-76.7-492.6c-7.9-50.8,6.5-95.2,41.7-128.4c30.3-28.6,75-48.2,129.5-56.6
				c50.3-7.8,103.3,11.7,149.1,55.1c41.3,39.1,70.6,93,78.6,144.3L2238.5,1748.7z M1867.7,1695l331,17.7l-71.4-458.4
				c-6.9-44.1-32.5-90.8-68.4-124.9c-38-36-80.8-52.5-120.6-46.3c-47.7,7.4-86.2,23.9-111.5,47.8c-27.1,25.6-37.7,58.8-31.5,98.6
				L1867.7,1695z"/>
		</g>
		<path class="st16" d="M2578.8,1782.3l410.6-403.2l-43.6-678.8l-530.3,82.5l124.5,997.6L2578.8,1782.3z M2569,1727.6l-114.2-915.1
			l458.2-71.3l40,623.7L2569,1727.6z"/>
		<polygon class="st17" points="1519.7,938.3 1738.5,547.9 1715.5,523.2 2445.4,350 2514.8,412 2593.2,389.3 2776.2,645.6 
			2924.5,767.1 2934.5,867.4 2958.2,916.5 2484.8,1130.2 2462.8,1031.5 2255.7,1103.6 1841.6,648.7 1530,1108.2 		"/>
		<line class="st12" x1="1539.9" y1="1154.3" x2="1704.7" y2="1157"/>
		
			<rect x="1604.7" y="1072.9" transform="matrix(1.629947e-02 -0.9999 0.9999 1.629947e-02 440.7661 2758.5952)" class="st13" width="35.3" height="164.8"/>
		<path class="st16" d="M1612.1,1717l-121.4-779.7l415.5-568.7l568.9,415.7l-16,21.8l118.9,977L1612.1,1717z M1914,417.9l-386,528.4
			l114.8,737.4l898,60.9l-118.2-948l3.4-4.6L1914,417.9z"/>
		<polygon class="st18" points="1458.9,1026.4 1859.5,488.6 1734,363.4 1385,869.4 		"/>
		<polygon class="st18" points="2484.5,194.1 2981.6,638.4 2992,705 2294.8,947.7 1754.6,367.3 		"/>
		<path class="st16" d="M2318,883.6c3.5-0.5,6.8-2.1,9.6-4.7c7-6.8,7.2-18,0.4-25l-496.5-513.7c-6.8-7-18-7.2-25-0.4
			c-7,6.8-7.2,18-0.4,25l496.5,513.7C2306.8,882.7,2312.6,884.5,2318,883.6z"/>
		<line class="st12" x1="2799.3" y1="686.2" x2="2456.3" y2="376.8"/>
		<path class="st19" d="M2802,703.7c3.9-0.6,7.5-2.5,10.4-5.6c6.5-7.3,6-18.4-1.3-24.9l-342.9-309.4c-7.3-6.5-18.4-6-24.9,1.3
			c-6.5,7.3-6,18.4,1.3,24.9l342.9,309.4C2791.5,703,2796.9,704.5,2802,703.7z"/>
		<line class="st12" x1="2525.6" y1="785.5" x2="2371.6" y2="622.4"/>
		<path class="st19" d="M2528.3,803c3.4-0.5,6.7-2.1,9.4-4.6c7.1-6.7,7.4-17.9,0.7-25l-153.9-163.1c-6.7-7.1-17.9-7.4-25-0.7
			c-7.1,6.7-7.4,17.9-0.7,25l153.9,163.1C2516.9,802,2522.8,803.8,2528.3,803z"/>
		<path class="st16" d="M2318,883.6c0.9-0.1,1.9-0.4,2.8-0.7l664-217.3c9.3-3,14.3-13,11.3-22.3c-3-9.3-13-14.3-22.3-11.3
			l-664,217.3c-9.3,3-14.3,13-11.3,22.3C2301.3,880,2309.6,884.9,2318,883.6z"/>
		<path class="st16" d="M1723.1,359.5l566.6,608.7l722-251.3l-13.6-87.4l-508.7-454.7l-740.7,175.8L1723.1,359.5z M1788.2,377.4
			l691.4-164.1l485.6,434l7.1,45.8l-672.4,234L1788.2,377.4z"/>
		<polygon class="st16" points="1392.7,928.3 1393.4,928.8 1455.4,1060.7 1882.8,486.9 1746.8,351.2 1712.8,363.1 1364.7,867.7 
			1393,927.9 		"/>
		<polygon class="st18" points="1736.5,390.9 1750.1,404.4 1416.1,894 1405.3,871 		"/>
		<polygon class="st20" points="1433.6,931.1 1775.5,429.8 1836.2,490.4 1462.3,992.3 		"/>
		
			<ellipse transform="matrix(0.9927 -0.1203 0.1203 0.9927 -156.693 258.74)" class="st15" cx="2064.6" cy="1427.1" rx="38.1" ry="42.6"/>
	</g>
</g>
<g>
	<g>
		<path class="st21" d="M4787.3,2462.7c3.2,0,3.2-5,0-5C4784.1,2457.7,4784.1,2462.7,4787.3,2462.7L4787.3,2462.7z"/>
	</g>
</g>
<g>
	<g>
		<path class="st21" d="M4787.3,2462.7c3.2,0,3.2-5,0-5C4784.1,2457.7,4784.1,2462.7,4787.3,2462.7L4787.3,2462.7z"/>
	</g>
</g>
<g>
	<g>
		<path class="st21" d="M4109.8,2255.3c3.2,0,3.2-5,0-5C4106.5,2250.3,4106.5,2255.3,4109.8,2255.3L4109.8,2255.3z"/>
	</g>
</g>
<g>
	<g>
		<path class="st21" d="M4109.8,2255.3c3.2,0,3.2-5,0-5C4106.5,2250.3,4106.5,2255.3,4109.8,2255.3L4109.8,2255.3z"/>
	</g>
</g>
<g>
	<g>
		<path class="st21" d="M5008.5,2531.8c3.2,0,3.2-5,0-5C5005.3,2526.8,5005.3,2531.8,5008.5,2531.8L5008.5,2531.8z"/>
	</g>
</g>
<g>
	<g>
		<path class="st21" d="M5755.2,2780.7c3.2,0,3.2-5,0-5C5752,2775.7,5752,2780.7,5755.2,2780.7L5755.2,2780.7z"/>
	</g>
</g>
<g>
	<g>
		<path class="st21" d="M4013,2241.4c3.2,0,3.2-5,0-5C4009.8,2236.4,4009.8,2241.4,4013,2241.4L4013,2241.4z"/>
	</g>
</g>
<g>
	<g>
		<path class="st21" d="M4013,2241.4c3.2,0,3.2-5,0-5C4009.8,2236.4,4009.8,2241.4,4013,2241.4L4013,2241.4z"/>
	</g>
</g>
<g>
	<g>
		<path class="st21" d="M4621.4,2490.3c3.2,0,3.2-5,0-5C4618.1,2485.3,4618.1,2490.3,4621.4,2490.3L4621.4,2490.3z"/>
	</g>
</g>
<g>
	<g>
		<path d="M16236,8090.2c3.2,0,3.2-5,0-5S16232.8,8090.2,16236,8090.2L16236,8090.2z"/>
	</g>
</g>
<g>
	<g>
		<path d="M-840.3,3444.4c3.2,0,3.2-5,0-5C-843.5,3439.4-843.5,3444.4-840.3,3444.4L-840.3,3444.4z"/>
	</g>
</g>
<g>
	<g>
		<path d="M12903.7,3416.7c3.2,0,3.2-5,0-5S12900.5,3416.7,12903.7,3416.7L12903.7,3416.7z"/>
	</g>
</g>
<g>
	<g>
		<path d="M12903.7,3416.7c3.2,0,3.2-5,0-5S12900.5,3416.7,12903.7,3416.7L12903.7,3416.7z"/>
	</g>
</g>
<g>
	<g>
		<path d="M12903.7,3416.7c3.2,0,3.2-5,0-5S12900.5,3416.7,12903.7,3416.7L12903.7,3416.7z"/>
	</g>
</g>
<g>
	<g>
		<path d="M12903.7,3416.7c3.2,0,3.2-5,0-5S12900.5,3416.7,12903.7,3416.7L12903.7,3416.7z"/>
	</g>
</g>
<g>
	<g>
		<path d="M3418.4,4633.5c3.2,0,3.2-5,0-5C3415.2,4628.5,3415.2,4633.5,3418.4,4633.5L3418.4,4633.5z"/>
	</g>
</g>
<g>
	<g>
		<path d="M2575-26.2c3.2,0,3.2-5,0-5S2571.8-26.2,2575-26.2L2575-26.2z"/>
	</g>
</g>
<g>
	<g>
		<path d="M1745.3,388.6c3.2,0,3.2-5,0-5C1742.1,383.6,1742.1,388.6,1745.3,388.6L1745.3,388.6z"/>
	</g>
</g>
</svg>
